<svg width="162" height="36" viewBox="0 0 162 36" fill="none" xmlns="http://www.w3.org/2000/svg">
<g clip-path="url(#clip0_4001_124)">
<path d="M53.4236 8.67674C52.423 8.1861 51.2273 7.94043 49.836 7.94043H40.9121V26.8761H44.9304V19.7491H49.836C51.2097 19.7491 52.397 19.4992 53.3975 18.9993C54.3976 18.4995 55.176 17.8027 55.7329 16.9085C56.2893 16.0144 56.5678 14.98 56.5678 13.8053C56.5678 12.6308 56.2938 11.6051 55.7458 10.7282C55.198 9.85164 54.4236 9.16783 53.4236 8.67674ZM51.7798 15.8697C51.2665 16.3871 50.5489 16.6455 49.6272 16.6455H44.9304V11.0438H49.6272C50.5489 11.0438 51.2665 11.2982 51.7798 11.8064C52.2926 12.3152 52.5495 12.99 52.5495 13.8315C52.5495 14.6731 52.2926 15.3528 51.7798 15.8697Z" fill="white"/>
<path d="M68.2439 14.0682C67.1393 13.4896 65.8476 13.2002 64.3692 13.2002C62.9081 13.2002 61.625 13.4896 60.5205 14.0682C59.4158 14.6468 58.5546 15.4533 57.9374 16.4878C57.3197 17.5224 57.0112 18.7323 57.0112 20.117C57.0112 21.5026 57.3197 22.7253 57.9374 23.786C58.5546 24.8471 59.4158 25.6709 60.5205 26.2583C61.625 26.8456 62.9081 27.1391 64.3692 27.1391C65.8305 27.1391 67.113 26.8456 68.2179 26.2583C69.3224 25.6709 70.1835 24.8471 70.8012 23.786C71.4184 22.7253 71.7274 21.5026 71.7274 20.117C71.7274 18.7323 71.4229 17.5224 70.8141 16.4878C70.2051 15.4533 69.3484 14.6468 68.2439 14.0682ZM67.2134 22.2079C66.9173 22.7957 66.5218 23.2466 66.0261 23.5625C65.5304 23.8779 64.978 24.0359 64.3692 24.0359C63.7602 24.0359 63.2082 23.8779 62.7123 23.5625C62.2166 23.2466 61.8208 22.7957 61.5252 22.2079C61.2292 21.6206 61.0816 20.9152 61.0816 20.091C61.0816 18.8988 61.3988 17.9696 62.0341 17.303C62.6687 16.637 63.447 16.3036 64.3692 16.3036C65.2911 16.3036 66.0693 16.6322 66.7045 17.2898C67.3394 17.9474 67.657 18.8809 67.657 20.091C67.657 20.9152 67.509 21.6206 67.2134 22.2079Z" fill="white"/>
<path d="M77.7294 7.94043H73.8154V26.8761H77.7294V7.94043Z" fill="white"/>
<path d="M84.9047 7.41455H80.7295V11.6749H84.9047V7.41455Z" fill="white"/>
<path d="M84.774 13.4634H80.8599V26.8761H84.774V13.4634Z" fill="white"/>
<path d="M92.3025 16.7769C92.7628 16.4613 93.3068 16.3036 93.9332 16.3036C94.5943 16.3036 95.173 16.4705 95.668 16.8032C96.1639 17.1366 96.5076 17.6277 96.699 18.276H100.483C100.308 17.2593 99.9211 16.3738 99.3211 15.6198C98.721 14.8662 97.9553 14.2744 97.0249 13.8445C96.0945 13.4151 95.0466 13.2002 93.8811 13.2002C92.4891 13.2002 91.2626 13.4986 90.2018 14.0944C89.1405 14.6908 88.3103 15.5145 87.7102 16.5665C87.1101 17.6185 86.8101 18.8198 86.8101 20.1695C86.8101 21.5201 87.1101 22.7208 87.7102 23.773C88.3103 24.8247 89.1405 25.6489 90.2018 26.2448C91.2626 26.8411 92.4891 27.139 93.8811 27.139C95.0466 27.139 96.0945 26.9241 97.0249 26.4947C97.9553 26.0653 98.721 25.4735 99.3211 24.7197C99.9211 23.9659 100.308 23.0802 100.483 22.0634H96.699C96.5076 22.7122 96.1639 23.2031 95.668 23.5361C95.173 23.8694 94.5943 24.0359 93.9332 24.0359C93.3068 24.0359 92.7628 23.8779 92.3025 23.5625C91.8414 23.2466 91.4888 22.7997 91.2457 22.2209C91.0018 21.6426 90.8802 20.9588 90.8802 20.1695C90.8802 19.3807 91.0018 18.6969 91.2457 18.1183C91.4888 17.5397 91.8414 17.0926 92.3025 16.7769Z" fill="white"/>
<path d="M107.615 21.6849L104.735 13.4634H100.508L105.491 26.2754L102.804 32.2676H106.718L114.781 13.4634H110.606L107.615 21.6849Z" fill="white"/>
<path d="M128.18 17.2503C127.893 17.0982 127.594 16.9744 127.284 16.8773C127.479 16.8111 127.669 16.734 127.853 16.6455C128.584 16.2951 129.167 15.7867 129.602 15.1202C130.036 14.4541 130.254 13.6563 130.254 12.7269C130.254 11.2543 129.741 10.0883 128.714 9.22907C127.688 8.37028 126.34 7.94043 124.67 7.94043H115.929V26.8761H125.009C126.174 26.8761 127.188 26.6657 128.049 26.2448C128.91 25.824 129.579 25.2236 130.058 24.4433C130.537 23.6635 130.776 22.7562 130.776 21.7216C130.776 20.6873 130.541 19.7886 130.071 19.0258C129.602 18.2628 128.971 17.6712 128.18 17.2503ZM123.809 10.8334C124.609 10.8334 125.214 11.0306 125.622 11.4252C126.031 11.8196 126.236 12.4027 126.236 13.174C126.236 13.9457 126.022 14.5284 125.596 14.923C125.17 15.3174 124.548 15.5146 123.731 15.5146H119.947V10.8334H123.809ZM126.04 23.2601C125.596 23.7425 124.939 23.9834 124.07 23.9834H119.947V18.4075H123.94C124.827 18.4075 125.509 18.6619 125.988 19.1703C126.466 19.6791 126.705 20.3715 126.705 21.2482C126.705 22.1074 126.484 22.7778 126.04 23.2601Z" fill="white"/>
<path d="M145.884 16.4878C145.274 15.4533 144.418 14.6468 143.314 14.0682C142.209 13.4896 140.917 13.2002 139.439 13.2002C137.978 13.2002 136.695 13.4896 135.59 14.0682C134.485 14.6468 133.624 15.4533 133.007 16.4878C132.39 17.5224 132.081 18.7323 132.081 20.117C132.081 21.5026 132.39 22.7253 133.007 23.786C133.624 24.8471 134.485 25.6709 135.59 26.2583C136.695 26.8456 137.978 27.139 139.439 27.139C140.9 27.139 142.183 26.8456 143.288 26.2583C144.392 25.6709 145.253 24.8471 145.871 23.786C146.488 22.7253 146.797 21.5026 146.797 20.117C146.797 18.7323 146.492 17.5224 145.884 16.4878ZM142.283 22.2079C141.987 22.7957 141.592 23.2466 141.096 23.5625C140.6 23.8779 140.047 24.0359 139.439 24.0359C138.83 24.0359 138.278 23.8779 137.782 23.5625C137.286 23.2466 136.89 22.7957 136.595 22.2079C136.299 21.6206 136.151 20.9152 136.151 20.091C136.151 18.8988 136.468 17.9696 137.103 17.303C137.738 16.637 138.517 16.3036 139.439 16.3036C140.361 16.3036 141.139 16.6322 141.774 17.2898C142.409 17.9474 142.726 18.8809 142.726 20.091C142.726 20.9152 142.579 21.6206 142.283 22.2079Z" fill="white"/>
<path d="M161.252 26.8761L156.095 19.9826L161.043 13.4634H156.764L154.155 17.2228L151.65 13.4634H147.267L152.07 19.8439L146.719 26.8761H150.972L153.998 22.5845L156.869 26.8761H161.252Z" fill="white"/>
<path d="M32.993 12.5837C31.199 12.0583 30.135 10.2007 30.5805 8.37208C31.2704 5.54058 28.4357 3.14316 25.7889 4.31963C24.0796 5.07941 22.0799 4.34582 21.255 2.65633C19.9777 0.0403387 16.2773 0.0403387 15 2.65633C14.1751 4.34582 12.1754 5.07941 10.466 4.31963C7.81924 3.14316 4.98455 5.54058 5.67445 8.37208C6.11998 10.2007 5.05594 12.0583 3.26197 12.5837C0.484151 13.3972 -0.158422 17.0703 2.17579 18.7924C3.68327 19.9046 4.05284 22.0169 3.01365 23.5817C1.40456 26.0046 3.25477 29.2346 6.14113 29.0415C8.00521 28.9168 9.63542 30.2955 9.83725 32.1675C10.1498 35.066 13.6271 36.3417 15.715 34.3237C17.0635 33.0205 19.1915 33.0205 20.54 34.3237C22.6279 36.3416 26.1052 35.066 26.4177 32.1675C26.6196 30.2955 28.2497 28.9168 30.1138 29.0415C33.0002 29.2346 34.8504 26.0046 33.2413 23.5817C32.2021 22.0169 32.5717 19.9046 34.0792 18.7924C36.4134 17.0703 35.7708 13.3972 32.993 12.5837ZM26.2512 26.188H10.0038V9.81204H15.7205V17.6316L18.1275 15.9402L20.5345 17.6316V9.81204H26.2512V26.188Z" fill="white"/>
</g>
<defs>
<clipPath id="clip0_4001_124">
<rect width="162" height="36" fill="white"/>
</clipPath>
</defs>
</svg>
